# This file uses centimeters as units for non-parametric coordinates.

mtllib modelingMaya.mtl
g default
v -0.500000 -1.346924 0.273509
v -0.166667 -1.346924 0.273509
v 0.166667 -1.346924 0.273509
v 0.500000 -1.346924 0.273509
v -0.500000 -0.035228 0.273509
v -0.166667 -0.035228 0.273509
v 0.166667 -0.035228 0.273509
v 0.500000 -0.035228 0.273509
v -0.500000 0.166667 0.273509
v -0.166667 0.166667 0.273509
v 0.166667 0.166667 0.273509
v 0.500000 0.166667 0.273509
v -0.500000 0.239697 0.273509
v -0.166667 0.239697 0.273509
v 0.166667 0.239697 0.273509
v 0.500000 0.239697 0.273509
v -0.500000 0.239697 0.166667
v -0.166667 0.239697 0.166667
v 0.166667 0.239697 0.166667
v 0.500000 0.239697 0.166667
v -0.500000 0.239697 -0.166667
v -0.166667 0.239697 -0.166667
v 0.166667 0.239697 -0.166667
v 0.500000 0.239697 -0.166667
v -0.500000 0.239697 -0.270316
v -0.166667 0.239697 -0.270316
v 0.166667 0.239697 -0.270316
v 0.500000 0.239697 -0.270316
v -0.500000 0.166667 -0.270316
v -0.166667 0.166667 -0.270316
v 0.166667 0.166667 -0.270316
v 0.500000 0.166667 -0.270316
v -0.500000 -0.035228 -0.270316
v -0.166667 -0.035228 -0.270316
v 0.166667 -0.035228 -0.270316
v 0.500000 -0.035228 -0.270316
v -0.500000 -1.346924 -0.270316
v -0.166667 -1.346924 -0.270316
v 0.166667 -1.346924 -0.270316
v 0.500000 -1.346924 -0.270316
v -0.500000 -1.346924 -0.166667
v -0.166667 -1.346924 -0.166667
v 0.166667 -1.346924 -0.166667
v 0.500000 -1.346924 -0.166667
v -0.500000 -1.346924 0.166667
v -0.166667 -1.346924 0.166667
v 0.166667 -1.346924 0.166667
v 0.500000 -1.346924 0.166667
v 0.500000 -0.035228 -0.166667
v 0.500000 -0.035228 0.166667
v 0.500000 0.166667 -0.166667
v 0.500000 0.166667 0.166667
v -0.500000 -0.035228 -0.166667
v -0.500000 -0.035228 0.166667
v -0.500000 0.166667 -0.166667
v -0.500000 0.166667 0.166667
v 1.782835 0.111920 -0.149538
v 1.782835 0.111920 0.027080
v 1.782835 0.166667 -0.149538
v 1.782835 0.166667 0.027080
v -1.782835 0.111920 -0.149539
v -1.782835 0.111920 0.027080
v -1.782835 0.166667 0.027080
v -1.782835 0.166667 -0.149539
v -0.531840 -3.754681 -0.166667
v -0.198506 -3.754681 -0.166667
v -0.198506 -3.754681 0.166667
v -0.531840 -3.754681 0.166667
v 0.134827 -3.754681 -0.166667
v 0.468160 -3.754681 -0.166667
v 0.468160 -3.754681 0.166667
v 0.134827 -3.754681 0.166667
v -0.166667 0.654348 0.166667
v 0.166667 0.654348 0.166667
v 0.166667 0.654348 -0.166667
v -0.166667 0.654348 -0.166667
v -0.517494 -2.354629 -0.166667
v -0.166667 -2.352043 -0.166667
v -0.166667 -2.352043 0.166667
v -0.517494 -2.354629 0.166667
v 0.166667 -2.352043 -0.166667
v 0.517494 -2.354629 -0.166667
v 0.517494 -2.354629 0.166667
v 0.166667 -2.352043 0.166667
v -0.532538 -3.572233 -0.166667
v -0.188042 -3.571210 -0.166667
v -0.188042 -3.571210 0.166667
v -0.532538 -3.572233 0.166667
v 0.145291 -3.571210 -0.166667
v 0.489290 -3.572303 -0.166667
v 0.489290 -3.572303 0.166667
v 0.145291 -3.571210 0.166667
v -0.188042 -3.618726 0.680577
v -0.532538 -3.619749 0.680577
v -0.531840 -3.754681 0.680577
v -0.198506 -3.754681 0.680577
v 0.489290 -3.619819 0.680577
v 0.145291 -3.618726 0.680577
v 0.134827 -3.754681 0.680577
v 0.468160 -3.754681 0.680577
v 1.782835 0.111920 -0.149538
v 1.782835 0.111920 0.027080
v 1.782835 0.166667 -0.149538
v 1.782835 0.166667 0.027080
v 2.129444 0.111920 -0.149538
v 2.129444 0.111920 0.027080
v 2.129444 0.166667 -0.149538
v 2.129444 0.166667 0.027080
v -2.129444 0.111920 -0.149539
v -2.129444 0.111920 0.027080
v -2.129444 0.166667 0.027080
v -2.129444 0.166667 -0.149539
vt 0.375000 0.000000
vt 0.458333 0.000000
vt 0.541667 0.000000
vt 0.625000 0.000000
vt 0.375000 0.083333
vt 0.458333 0.083333
vt 0.541667 0.083333
vt 0.625000 0.083333
vt 0.375000 0.166667
vt 0.458333 0.166667
vt 0.541667 0.166667
vt 0.625000 0.166667
vt 0.375000 0.250000
vt 0.458333 0.250000
vt 0.541667 0.250000
vt 0.625000 0.250000
vt 0.375000 0.333333
vt 0.458333 0.333333
vt 0.541667 0.333333
vt 0.625000 0.333333
vt 0.375000 0.416667
vt 0.458333 0.416667
vt 0.541667 0.416667
vt 0.625000 0.416667
vt 0.375000 0.500000
vt 0.458333 0.500000
vt 0.541667 0.500000
vt 0.625000 0.500000
vt 0.375000 0.583333
vt 0.458333 0.583333
vt 0.541667 0.583333
vt 0.625000 0.583333
vt 0.375000 0.666667
vt 0.458333 0.666667
vt 0.541667 0.666667
vt 0.625000 0.666667
vt 0.375000 0.750000
vt 0.458333 0.750000
vt 0.541667 0.750000
vt 0.625000 0.750000
vt 0.375000 0.833333
vt 0.458333 0.833333
vt 0.541667 0.833333
vt 0.625000 0.833333
vt 0.375000 0.916667
vt 0.458333 0.916667
vt 0.541667 0.916667
vt 0.625000 0.916667
vt 0.375000 1.000000
vt 0.458333 1.000000
vt 0.541667 1.000000
vt 0.625000 1.000000
vt 0.875000 0.000000
vt 0.791667 0.000000
vt 0.708333 0.000000
vt 0.875000 0.083333
vt 0.791667 0.083333
vt 0.708333 0.083333
vt 0.875000 0.166667
vt 0.791667 0.166667
vt 0.708333 0.166667
vt 0.875000 0.250000
vt 0.791667 0.250000
vt 0.708333 0.250000
vt 0.125000 0.000000
vt 0.208333 0.000000
vt 0.291667 0.000000
vt 0.125000 0.083333
vt 0.208333 0.083333
vt 0.291667 0.083333
vt 0.125000 0.166667
vt 0.208333 0.166667
vt 0.291667 0.166667
vt 0.125000 0.250000
vt 0.208333 0.250000
vt 0.291667 0.250000
vt 0.708333 0.083333
vt 0.791667 0.083333
vt 0.791667 0.166667
vt 0.708333 0.166667
vt 0.208333 0.083333
vt 0.291667 0.083333
vt 0.291667 0.166667
vt 0.208333 0.166667
vt 0.375000 0.833333
vt 0.458333 0.833333
vt 0.458333 0.916667
vt 0.375000 0.916667
vt 0.541667 0.833333
vt 0.625000 0.833333
vt 0.625000 0.916667
vt 0.541667 0.916667
vt 0.458333 0.333333
vt 0.541667 0.333333
vt 0.541667 0.416667
vt 0.458333 0.416667
vt 0.375000 0.833333
vt 0.458333 0.833333
vt 0.458333 0.916667
vt 0.375000 0.916667
vt 0.541667 0.833333
vt 0.625000 0.833333
vt 0.625000 0.916667
vt 0.541667 0.916667
vt 0.375000 0.833333
vt 0.458333 0.833333
vt 0.458333 0.916667
vt 0.375000 0.916667
vt 0.541667 0.833333
vt 0.625000 0.833333
vt 0.625000 0.916667
vt 0.541667 0.916667
vt 0.458333 0.916667
vt 0.375000 0.916667
vt 0.375000 0.916667
vt 0.458333 0.916667
vt 0.625000 0.916667
vt 0.541667 0.916667
vt 0.541667 0.916667
vt 0.625000 0.916667
vt 0.708333 0.083333
vt 0.791667 0.083333
vt 0.791667 0.166667
vt 0.708333 0.166667
vt 0.708333 0.083333
vt 0.791667 0.083333
vt 0.791667 0.166667
vt 0.708333 0.166667
vt 0.208333 0.083333
vt 0.291667 0.083333
vt 0.291667 0.166667
vt 0.208333 0.166667
vn 0.000000 0.000000 1.000000
vn 0.000000 0.000000 1.000000
vn 0.000000 0.000000 1.000000
vn 0.000000 0.000000 1.000000
vn 0.000000 0.000000 1.000000
vn 0.000000 0.000000 1.000000
vn 0.000000 0.000000 1.000000
vn 0.000000 0.000000 1.000000
vn 0.000000 -0.000000 1.000000
vn 0.000000 0.000000 1.000000
vn 0.000000 -0.000000 1.000000
vn 0.000000 -0.000000 1.000000
vn 0.000000 -0.000000 1.000000
vn 0.000000 0.000000 1.000000
vn 0.000000 -0.000000 1.000000
vn 0.000000 -0.000000 1.000000
vn 0.000000 1.000000 0.000000
vn 0.000000 1.000000 0.000000
vn 0.000000 1.000000 0.000000
vn 0.000000 1.000000 0.000000
vn 0.000000 1.000000 0.000000
vn 0.000000 1.000000 0.000000
vn 0.000000 1.000000 0.000000
vn 0.000000 1.000000 0.000000
vn 0.000000 1.000000 0.000000
vn 0.000000 1.000000 0.000000
vn 0.000000 1.000000 0.000000
vn 0.000000 1.000000 0.000000
vn 0.000000 1.000000 0.000000
vn 0.000000 1.000000 0.000000
vn 0.000000 1.000000 0.000000
vn 0.000000 1.000000 0.000000
vn 0.000000 1.000000 0.000000
vn 0.000000 1.000000 0.000000
vn 0.000000 1.000000 0.000000
vn 0.000000 1.000000 0.000000
vn 0.000000 0.000000 -1.000000
vn 0.000000 0.000000 -1.000000
vn 0.000000 0.000000 -1.000000
vn 0.000000 0.000000 -1.000000
vn 0.000000 0.000000 -1.000000
vn 0.000000 0.000000 -1.000000
vn 0.000000 0.000000 -1.000000
vn 0.000000 0.000000 -1.000000
vn 0.000000 0.000000 -1.000000
vn 0.000000 0.000000 -1.000000
vn 0.000000 0.000000 -1.000000
vn 0.000000 0.000000 -1.000000
vn 0.000000 0.000000 -1.000000
vn 0.000000 0.000000 -1.000000
vn 0.000000 0.000000 -1.000000
vn 0.000000 0.000000 -1.000000
vn 0.000000 -1.000000 0.000000
vn 0.000000 -1.000000 0.000000
vn 0.000000 -1.000000 0.000000
vn 0.000000 -1.000000 0.000000
vn 0.000000 -1.000000 0.000000
vn 0.000000 -1.000000 0.000000
vn 0.000000 -1.000000 0.000000
vn 0.000000 -1.000000 0.000000
vn 0.000000 -1.000000 0.000000
vn 0.000000 -1.000000 0.000000
vn 0.000000 -1.000000 0.000000
vn 0.000000 -1.000000 0.000000
vn 0.000000 -1.000000 0.000000
vn 0.000000 -1.000000 0.000000
vn 0.000000 -1.000000 0.000000
vn 0.000000 -1.000000 0.000000
vn 0.000000 -1.000000 0.000000
vn 0.000000 -1.000000 0.000000
vn 0.000000 -1.000000 0.000000
vn 0.000000 -1.000000 0.000000
vn 0.000000 -1.000000 0.000000
vn 0.000000 -1.000000 0.000000
vn 0.000000 -1.000000 0.000000
vn 0.000000 -1.000000 0.000000
vn 0.999979 0.006414 0.000000
vn 1.000000 0.000000 0.000000
vn 1.000000 0.000000 0.000000
vn 1.000000 0.000000 0.000000
vn 0.999980 0.006385 0.000000
vn 1.000000 0.000000 0.000000
vn 1.000000 0.000000 0.000000
vn 1.000000 0.000000 0.000000
vn 1.000000 0.000000 0.000000
vn 1.000000 0.000000 0.000000
vn 1.000000 0.000000 0.000000
vn 1.000000 0.000000 0.000000
vn 1.000000 0.000000 0.000000
vn 1.000000 0.000000 0.000000
vn 1.000000 0.000000 0.000000
vn 1.000000 0.000000 0.000000
vn 1.000000 0.000000 0.000000
vn 1.000000 0.000000 0.000000
vn 1.000000 0.000000 0.000000
vn 1.000000 0.000000 0.000000
vn -1.000000 0.000000 0.000000
vn -0.999979 0.006414 0.000000
vn -1.000000 0.000000 0.000000
vn -1.000000 0.000000 0.000000
vn -0.999980 0.006385 0.000000
vn -1.000000 0.000000 0.000000
vn -1.000000 0.000000 0.000000
vn -1.000000 0.000000 0.000000
vn -1.000000 0.000000 0.000000
vn -1.000000 0.000000 0.000000
vn -1.000000 0.000000 0.000000
vn -1.000000 0.000000 0.000000
vn -1.000000 0.000000 0.000000
vn -1.000000 0.000000 0.000000
vn -1.000000 0.000000 0.000000
vn -1.000000 0.000000 0.000000
vn -1.000000 0.000000 0.000000
vn -1.000000 0.000000 0.000000
vn -1.000000 0.000000 0.000000
vn -1.000000 0.000000 0.000000
vn 0.113958 -0.993486 0.000000
vn 0.113958 -0.993486 0.000000
vn 0.113958 -0.993486 0.000000
vn 0.113958 -0.993486 0.000000
vn 0.013351 0.000000 -0.999911
vn 0.013351 0.000000 -0.999911
vn 0.013351 0.000000 -0.999911
vn 0.013351 0.000000 -0.999911
vn 0.000000 1.000000 0.000000
vn 0.000000 1.000000 0.000000
vn 0.000000 1.000000 0.000000
vn 0.000000 1.000000 0.000000
vn 0.108172 0.000000 0.994132
vn 0.108172 0.000000 0.994132
vn 0.108172 0.000000 0.994132
vn 0.108172 0.000000 0.994132
vn -0.113958 -0.993486 0.000000
vn -0.113958 -0.993486 0.000000
vn -0.097147 -0.995270 0.000000
vn -0.096300 -0.995353 0.000000
vn -0.108172 0.000000 0.994132
vn -0.108172 0.000000 0.994132
vn -0.097103 0.000000 0.995274
vn -0.097778 0.000000 0.995208
vn 0.000000 1.000000 0.000000
vn 0.000000 1.000000 0.000000
vn 0.000000 1.000000 0.000000
vn 0.000000 1.000000 0.000000
vn -0.013351 0.000000 -0.999911
vn -0.013351 0.000000 -0.999911
vn -0.012055 0.000000 -0.999927
vn -0.011971 0.000000 -0.999928
vn 0.000000 0.000000 -1.000000
vn 0.000000 0.000000 -1.000000
vn 0.000000 0.000000 -1.000000
vn 0.000000 0.000000 -1.000000
vn 0.998378 -0.056942 0.000000
vn 0.998096 -0.061653 -0.001688
vn 0.998088 -0.061778 -0.001732
vn 0.998378 -0.056942 0.000000
vn 0.000000 0.000000 1.000000
vn 0.000000 0.000000 1.000000
vn 0.000000 0.000000 1.000000
vn 0.000000 0.000000 1.000000
vn -0.999991 -0.004147 -0.000114
vn -0.999993 -0.003827 -0.000000
vn -0.999993 -0.003827 -0.000000
vn -0.999991 -0.004155 -0.000117
vn 0.000000 0.000000 -1.000000
vn 0.000000 0.000000 -1.000000
vn 0.000000 0.000000 -1.000000
vn 0.000000 0.000000 -1.000000
vn 0.993356 -0.115086 0.000000
vn 0.992206 -0.124561 -0.003410
vn 0.992174 -0.124811 -0.003500
vn 0.993356 -0.115086 0.000000
vn -0.000000 0.000000 1.000000
vn -0.000000 0.000000 1.000000
vn -0.000000 0.000000 1.000000
vn -0.000000 0.000000 1.000000
vn -0.998096 0.061653 0.001688
vn -0.998378 0.056942 0.000000
vn -0.998378 0.056942 0.000000
vn -0.998088 0.061778 0.001732
vn 0.000000 0.000000 1.000000
vn 0.000000 0.000000 1.000000
vn 0.000000 0.000000 1.000000
vn 0.000000 0.000000 1.000000
vn 1.000000 0.000000 0.000000
vn 1.000000 0.000000 0.000000
vn 1.000000 0.000000 0.000000
vn 1.000000 0.000000 0.000000
vn 0.000000 0.000000 -1.000000
vn 0.000000 0.000000 -1.000000
vn 0.000000 0.000000 -1.000000
vn 0.000000 0.000000 -1.000000
vn -1.000000 0.000000 0.000000
vn -1.000000 0.000000 0.000000
vn -1.000000 0.000000 0.000000
vn -1.000000 0.000000 0.000000
vn 0.000000 0.000000 -1.000000
vn 0.000000 0.000000 -1.000000
vn 0.000000 0.000000 -1.000000
vn 0.000000 0.000000 -1.000000
vn 1.000000 0.000000 0.000000
vn 1.000000 0.000000 0.000000
vn 1.000000 0.000000 0.000000
vn 1.000000 0.000000 0.000000
vn 0.000000 0.000000 1.000000
vn 0.000000 0.000000 1.000000
vn 0.000000 0.000000 1.000000
vn 0.000000 0.000000 1.000000
vn -0.999849 0.017357 0.000000
vn -0.999849 0.017357 0.000000
vn 0.000000 0.000000 -1.000000
vn 0.000000 0.000000 -1.000000
vn 0.000000 0.000000 -1.000000
vn 0.000000 0.000000 -1.000000
vn 0.999849 0.017357 0.000000
vn 0.999849 0.017357 0.000000
vn 0.000000 0.000000 1.000000
vn 0.000000 0.000000 1.000000
vn 0.000000 0.000000 1.000000
vn 0.000000 0.000000 1.000000
vn -1.000000 0.000000 0.000000
vn -1.000000 0.000000 0.000000
vn -1.000000 0.000000 0.000000
vn -1.000000 0.000000 0.000000
vn 0.000000 -0.000000 -1.000000
vn 0.000000 -0.000000 -1.000000
vn 0.000000 -0.000000 -1.000000
vn 0.000000 -0.000000 -1.000000
vn 0.999846 -0.017530 0.000000
vn 0.999846 -0.017530 0.000000
vn 0.999846 -0.017530 0.000000
vn 0.999846 -0.017530 0.000000
vn 0.000000 0.000000 1.000000
vn 0.000000 0.000000 1.000000
vn 0.000000 0.000000 1.000000
vn 0.000000 0.000000 1.000000
vn -0.999924 0.012355 -0.000000
vn -0.999924 0.012355 -0.000000
vn -0.999924 0.012355 -0.000000
vn -0.999924 0.012355 -0.000000
vn -0.000000 -0.000000 -1.000000
vn -0.000000 -0.000000 -1.000000
vn -0.000000 -0.000000 -1.000000
vn -0.000000 -0.000000 -1.000000
vn 0.999732 -0.023156 0.000000
vn 0.999732 -0.023156 0.000000
vn 0.999732 -0.023156 0.000000
vn 0.999732 -0.023156 0.000000
vn -0.000000 0.000000 1.000000
vn -0.000000 0.000000 1.000000
vn -0.000000 0.000000 1.000000
vn -0.000000 0.000000 1.000000
vn -0.999846 0.017530 0.000000
vn -0.999846 0.017530 0.000000
vn -0.999846 0.017530 0.000000
vn -0.999846 0.017530 0.000000
vn -0.002957 0.995748 0.092067
vn -0.002957 0.995749 0.092067
vn -0.002957 0.995748 0.092067
vn -0.002957 0.995749 0.092067
vn -0.999990 -0.004400 -0.000203
vn -0.999990 -0.004400 -0.000203
vn 0.000000 -1.000000 0.000000
vn 0.000000 -1.000000 0.000000
vn 0.997856 -0.065378 -0.003022
vn 0.997856 -0.065378 -0.003022
vn 0.003163 0.995748 0.092066
vn 0.003163 0.995748 0.092066
vn 0.003163 0.995748 0.092066
vn 0.003163 0.995748 0.092066
vn -0.997856 0.065378 0.003022
vn -0.997856 0.065378 0.003022
vn 0.000000 -1.000000 0.000000
vn 0.000000 -1.000000 0.000000
vn 0.991226 -0.132039 -0.006104
vn 0.991226 -0.132039 -0.006104
vn 0.000000 0.000000 0.000000
vn 0.000000 0.000000 0.000000
vn 0.000000 0.000000 0.000000
vn 0.000000 0.000000 0.000000
vn 0.000000 0.000000 0.000000
vn 0.000000 0.000000 0.000000
vn 0.000000 0.000000 0.000000
vn 0.000000 0.000000 0.000000
vn 0.000000 0.000000 0.000000
vn 0.000000 0.000000 0.000000
vn 0.000000 0.000000 0.000000
vn 0.000000 0.000000 0.000000
vn 0.000000 0.000000 0.000000
vn 0.000000 0.000000 0.000000
vn 0.000000 0.000000 0.000000
vn 0.000000 0.000000 0.000000
vn 0.000000 -1.000000 0.000000
vn 0.000000 -1.000000 0.000000
vn 0.000000 -1.000000 0.000000
vn 0.000000 -1.000000 0.000000
vn 0.000000 0.000000 -1.000000
vn 0.000000 0.000000 -1.000000
vn 0.000000 0.000000 -1.000000
vn 0.000000 0.000000 -1.000000
vn 0.000000 1.000000 0.000000
vn 0.000000 1.000000 0.000000
vn 0.000000 1.000000 0.000000
vn 0.000000 1.000000 0.000000
vn 0.000000 0.000000 1.000000
vn 0.000000 0.000000 1.000000
vn 0.000000 0.000000 1.000000
vn 0.000000 0.000000 1.000000
vn 0.000000 -1.000000 0.000000
vn 0.000000 -1.000000 0.000000
vn 0.000000 0.000000 1.000000
vn 0.000000 0.000000 1.000000
vn 0.000000 1.000000 0.000000
vn 0.000000 1.000000 0.000000
vn 0.000000 0.000000 -1.000000
vn 0.000000 0.000000 -1.000000
s 1
g pCube1
usemtl initialShadingGroup
f 1/1/1 2/2/2 6/6/3 5/5/4
f 2/2/2 3/3/5 7/7/6 6/6/3
f 3/3/5 4/4/7 8/8/8 7/7/6
f 5/5/4 6/6/3 10/10/9 9/9/10
f 6/6/3 7/7/6 11/11/11 10/10/9
f 7/7/6 8/8/8 12/12/12 11/11/11
f 9/9/10 10/10/9 14/14/13 13/13/14
f 10/10/9 11/11/11 15/15/15 14/14/13
f 11/11/11 12/12/12 16/16/16 15/15/15
s 2
f 13/13/17 14/14/18 18/18/19 17/17/20
f 14/14/18 15/15/21 19/19/22 18/18/19
f 15/15/21 16/16/23 20/20/24 19/19/22
f 17/17/20 18/18/19 22/22/25 21/21/26
s off
f 73/93/27 74/94/28 75/95/29 76/96/30
s 2
f 19/19/22 20/20/24 24/24/31 23/23/32
f 21/21/26 22/22/25 26/26/33 25/25/34
f 22/22/25 23/23/32 27/27/35 26/26/33
f 23/23/32 24/24/31 28/28/36 27/27/35
s 3
f 25/25/37 26/26/38 30/30/39 29/29/40
f 26/26/38 27/27/41 31/31/42 30/30/39
f 27/27/41 28/28/43 32/32/44 31/31/42
f 29/29/40 30/30/39 34/34/45 33/33/46
f 30/30/39 31/31/42 35/35/47 34/34/45
f 31/31/42 32/32/44 36/36/48 35/35/47
f 33/33/46 34/34/45 38/38/49 37/37/50
f 34/34/45 35/35/47 39/39/51 38/38/49
f 35/35/47 36/36/48 40/40/52 39/39/51
s 4
f 37/37/53 38/38/54 42/42/55 41/41/56
f 38/38/54 39/39/57 43/43/58 42/42/55
f 39/39/57 40/40/59 44/44/60 43/43/58
s 5
f 65/85/61 66/86/62 67/87/63 68/88/64
s 4
f 42/42/55 43/43/58 47/47/65 46/46/66
s 6
f 69/89/67 70/90/68 71/91/69 72/92/70
s 4
f 45/45/71 46/46/66 2/50/72 1/49/73
f 46/46/66 47/47/65 3/51/74 2/50/72
f 47/47/65 48/48/75 4/52/76 3/51/74
s 7
f 44/54/77 40/53/78 36/56/79 49/57/80
f 48/55/81 44/54/77 49/57/80 50/58/82
f 4/4/83 48/55/81 50/58/82 8/8/84
f 49/57/80 36/56/79 32/59/85 51/60/86
s off
f 106/125/87 105/126/88 107/127/89 108/128/90
s 7
f 8/8/84 50/58/82 52/61/91 12/12/92
f 51/60/86 32/59/85 28/62/93 24/63/94
f 52/61/91 51/60/86 24/63/94 20/64/95
f 12/12/92 52/61/91 20/64/95 16/16/96
s 8
f 37/65/97 41/66/98 53/69/99 33/68/100
f 41/66/98 45/67/101 54/70/102 53/69/99
f 45/67/101 1/1/103 5/5/104 54/70/102
f 33/68/100 53/69/99 55/72/105 29/71/106
s off
f 109/129/107 110/130/108 111/131/109 112/132/110
s 8
f 54/70/102 5/5/104 9/9/111 56/73/112
f 29/71/106 55/72/105 21/75/113 25/74/114
f 55/72/105 56/73/112 17/76/115 21/75/113
f 56/73/112 9/9/111 13/13/116 17/76/115
s off
f 50/58/117 49/57/118 57/78/119 58/77/120
f 49/57/121 51/60/122 59/79/123 57/78/124
f 51/60/125 52/61/126 60/80/127 59/79/128
f 52/61/129 50/58/130 58/77/131 60/80/132
s 9
f 53/69/133 54/70/134 62/82/135 61/81/136
s 10
f 54/70/137 56/73/138 63/83/139 62/82/140
s 11
f 56/73/141 55/72/142 64/84/143 63/83/144
s 12
f 55/72/145 53/69/146 61/81/147 64/84/148
s off
f 85/105/149 86/106/150 66/86/151 65/85/152
s 13
f 86/106/153 87/107/154 67/87/155 66/86/156
s off
f 93/113/157 94/114/158 95/115/159 96/116/160
s 14
f 88/108/161 85/105/162 65/85/163 68/88/164
s off
f 89/109/165 90/110/166 70/90/167 69/89/168
s 15
f 90/110/169 91/111/170 71/91/171 70/90/172
s off
f 97/117/173 98/118/174 99/119/175 100/120/176
s 16
f 92/112/177 89/109/178 69/89/179 72/92/180
s off
f 18/18/181 19/19/182 74/94/183 73/93/184
f 19/19/185 23/23/186 75/95/187 74/94/188
f 23/23/189 22/22/190 76/96/191 75/95/192
f 22/22/193 18/18/194 73/93/195 76/96/196
f 41/41/197 42/42/198 78/98/199 77/97/200
f 42/42/201 46/46/202 79/99/203 78/98/204
f 46/46/205 45/45/206 80/100/207 79/99/208
s 8
f 45/45/101 41/41/98 77/97/209 80/100/210
s off
f 43/43/211 44/44/212 82/102/213 81/101/214
s 7
f 44/44/77 48/48/81 83/103/215 82/102/216
s off
f 48/48/217 47/47/218 84/104/219 83/103/220
f 47/47/221 43/43/222 81/101/223 84/104/224
f 77/97/225 78/98/226 86/106/227 85/105/228
f 78/98/229 79/99/230 87/107/231 86/106/232
f 79/99/233 80/100/234 88/108/235 87/107/236
f 80/100/237 77/97/238 85/105/239 88/108/240
f 81/101/241 82/102/242 90/110/243 89/109/244
f 82/102/245 83/103/246 91/111/247 90/110/248
f 83/103/249 84/104/250 92/112/251 91/111/252
f 84/104/253 81/101/254 89/109/255 92/112/256
f 87/107/257 88/108/258 94/114/259 93/113/260
s 14
f 88/108/161 68/88/164 95/115/261 94/114/262
s 5
f 68/88/64 67/87/63 96/116/263 95/115/264
s 13
f 67/87/155 87/107/154 93/113/265 96/116/266
s off
f 91/111/267 92/112/268 98/118/269 97/117/270
s 16
f 92/112/177 72/92/180 99/119/271 98/118/272
s 6
f 72/92/70 71/91/69 100/120/273 99/119/274
s 15
f 71/91/171 91/111/170 97/117/275 100/120/276
s off
f 58/77/277 57/78/278 101/122/279 102/121/280
f 57/78/281 59/79/282 103/123/283 101/122/284
f 59/79/285 60/80/286 104/124/287 103/123/288
f 60/80/289 58/77/290 102/121/291 104/124/292
f 102/121/293 101/122/294 105/126/295 106/125/296
f 101/122/297 103/123/298 107/127/299 105/126/300
f 103/123/301 104/124/302 108/128/303 107/127/304
f 104/124/305 102/121/306 106/125/307 108/128/308
s 9
f 61/81/136 62/82/135 110/130/309 109/129/310
s 10
f 62/82/140 63/83/139 111/131/311 110/130/312
s 11
f 63/83/144 64/84/143 112/132/313 111/131/314
s 12
f 64/84/148 61/81/147 109/129/315 112/132/316
